<?xml version="1.0" standalone="yes"?>
<svg xmlns="http://www.w3.org/2000/svg" width="587" height="587">
<path style="fill:#fefefd; stroke:none;" d="M0 0L0 587L587 587L587 0L0 0z"/>
<path style="fill:#3b3c38; stroke:none;" d="M68 345C70.5368 351.772 70.4498 359.089 72.4313 366C76.7875 381.193 90.1474 396.512 106.999 388.165C110.489 386.437 113.437 383.962 115.841 380.91C131.11 361.52 132 332.459 132 309C132 302.386 133.487 295.545 132.715 289C131.69 280.316 130.4 271.617 128.851 263.015C128.423 260.638 126.87 258.295 126.745 255.92C126.573 252.679 129.816 248.775 131.258 245.999C135.416 238.001 139.932 230.21 143.691 222C148.027 212.531 150.12 202.257 151.704 192C152.632 185.992 152.944 179.608 155.554 174C157.599 169.605 161.205 166.415 164.428 162.91C169.999 156.854 175.731 150.646 182 145.301C185.278 142.506 188.984 139.837 193 138.21C211.343 130.777 229.02 141.992 246 147.226C253.869 149.652 262.834 150.711 271 151.714C311.778 156.722 350.454 137.937 390 132.3C397.693 131.203 405.319 132.988 413 133C435.37 133.036 457.146 133.617 479 128.127C493.059 124.595 507.699 117.863 514.261 104C516.658 98.9354 517.128 93.4932 517.711 88C519.176 74.1983 511.261 61.3967 501.985 52.0038C488.322 38.1679 470.215 33.1787 452 28.625C443.41 26.4776 434.826 24.0554 426 23.0502C383.945 18.2609 342.836 28.8381 301 29.8712C278.775 30.42 256.237 25.5594 234 25.0146C189.707 23.9297 143.47 35.3528 109 64.439C70.8702 96.6134 52.0896 150.888 59.1698 200C60.7834 211.193 64.7258 222.075 67.5216 233C72.372 251.953 75.8263 275.479 72.7863 295C71.7637 301.566 67.4936 308.666 65.2168 315C60.3084 328.656 55.6394 342.401 50.5756 356C48.6202 361.251 47.2959 366.392 46.8642 371.999C46.7103 373.999 46.3031 376.682 48.3526 377.914C52.3063 380.29 54.1119 374.561 55.0856 371.999C58.6171 362.707 65.0162 354.429 68 345z"/>
<path style="fill:#fefefd; stroke:none;" d="M78 283C86.1497 273.164 88.5668 261.105 100 253.61C103.35 251.413 107.003 250.217 111 250.041C117.423 249.757 121.802 252.255 125.796 245.981C133.523 233.84 142.258 219.171 145.332 205C148.042 192.503 146.789 177.82 152.513 166.104C154.499 162.04 159.75 159.89 163 156.907C173.678 147.105 184.606 135.484 199 131.428C220.309 125.424 239.549 144.262 260 145.907C276.103 147.202 294.007 148.723 310 145.916C333.015 141.876 354.859 132.426 378 129.209C397.144 126.548 417.623 129 437 129C443.551 129 450.528 129.67 457 128.536C475.955 125.216 503.758 119.492 511.441 99C525.837 60.6053 478.404 37.4084 448 31.9229C432.597 29.1438 416.773 24.8197 401 25.0185C369.811 25.4116 339.193 34 308 34C278.331 34 248.736 27.2861 219 28.0146C213.9 28.1396 209.035 29.847 204 30.5718C194.957 31.8737 185.896 32.5793 177 34.9229C110.83 52.3542 58.9605 111.689 62.0394 182C63.5383 216.232 78 248.519 78 283z"/>
<path style="fill:#3b3c38; stroke:none;" d="M490 198C482.263 197.999 474.678 196.079 467 196.079C461.062 196.079 454.901 197.278 449 197.95C441.882 198.76 432.868 200.426 428 206C434.44 207.903 440.482 206.18 447 206.054C453.919 205.921 460.012 206.728 467 205.729C471.578 205.075 479.486 201.958 483.83 202.929C488.479 203.968 492.272 210.787 493.316 215C494.7 220.581 494.476 226.381 495.464 232C497.271 242.275 500.544 252.541 501 263C483.695 259.788 463.595 258.856 446 260.09C438.456 260.618 429.661 262.259 429 271C434.354 269.968 438.648 266.464 444 265.289C456.508 262.544 469.468 264.231 482 265.715C487.251 266.336 495.196 264.877 499.486 268.738C502.971 271.875 501.857 277.842 502.039 282C502.416 290.584 504.71 299.708 506.884 308C514.748 337.989 521.902 373.212 514.403 404C509.822 422.805 498.64 439.837 485.83 454C470.55 470.895 451.527 482.81 431 492.308C418.998 497.861 406.692 503.566 394 507.431C372.559 513.958 350.134 515.574 328 517.089C318.102 517.767 307.912 518.921 298 518.921C286.995 518.921 275.969 516.841 265 516.089C228.508 513.591 191.973 510.638 158 495.561C143.033 488.918 127.349 480.705 115 469.83C108.691 464.274 101.982 458.903 96.0394 452.961C92.0608 448.982 89.1994 444.431 84 442C87.8798 454.256 97.5674 461.6 107 469.435C116.259 477.126 125.43 484.682 136 490.561C148.624 497.582 162.521 502.401 176 507.424C204.296 517.97 233.339 518.058 263 520.089C285.104 521.603 307.804 522.933 330 521.961C338.029 521.609 346.005 519.931 354 519.17C360.694 518.532 367.336 518.594 374 517.384C384.891 515.407 394.67 511.633 405 507.94C422.188 501.795 440.406 494.76 456 485.025C471.944 475.072 485.525 462.226 497.7 448C509.356 434.38 517.404 415.756 519.711 398C520.649 390.775 519.837 383.272 520.015 376C520.405 360.05 519.529 343.85 516.54 328C514.502 317.192 510.379 306.836 508.464 296C507.331 289.591 506.241 281.503 506.723 275C506.928 272.234 508.629 269.825 508.042 267C507.399 263.898 505.418 261.135 504.68 258C500.894 241.931 496.71 224.539 496 208L523 214L524 213C518.375 201.745 502.601 209.148 495.603 200.606C492.457 196.765 494 188.656 494 184L494 142C488.328 143.883 490 151.012 490 156L490 198M305 206C302.405 197.372 286.896 194.386 279 193.961C273.198 193.648 268.595 190.31 263 189.329C252.593 187.505 240.868 190.063 231 192.957C225.709 194.509 220.202 194.664 215.005 196.714C213.034 197.491 210.275 198.635 209.921 201.049C209.493 203.974 212.831 204.748 215.005 204.941C220.693 205.446 226.356 204.426 232 203.971C238.612 203.439 243.589 198.58 250 198.058C268.808 196.527 286.648 203.63 305 206M243 259C250.634 260.654 259.228 258.205 267 258.015C281.387 257.662 295.211 259.238 309 263C307.147 256.997 300.611 256.163 295 255.296C282.583 253.379 271.399 253.98 259 254C253.014 254.01 245.542 252.355 243 259z"/>
<path style="fill:#fefefd; stroke:none;" d="M72 329C78.3041 325.175 82.3232 316.241 85.9892 310C92.5632 298.808 99.3128 287.804 106.515 277C110.991 270.286 116.925 263.218 118 255C113.501 255 108.255 254.287 104 256.009C98.5363 258.221 94.5316 263.56 90.9344 268C76.8961 285.327 74.6919 307.7 72 329M124 260C115.827 264.246 110.619 278.36 105.657 286C98.9914 296.261 92.7855 306.817 86 317C81.8573 323.217 76.2108 329.734 74.1049 337C71.7277 345.203 73.3389 354.965 75.7207 363C78.4629 372.251 82.8181 382.436 93 385.362C107.5 389.529 117.588 371.17 121.251 360C129.02 336.31 130.517 310.65 128.17 286C127.321 277.086 127.7 268.359 124 260z"/>
<path style="fill:#3b3c38; stroke:none;" d="M397 264C397.626 270.244 400.591 276.165 402.808 282C407.552 294.485 412.687 305.544 419.601 317C424.501 325.118 432.49 333.193 433 343C425.986 343.301 419.049 345.492 412 344.83C401.341 343.829 391.8 340 381 340C376.057 340 370.888 340.417 366.001 339.556C364.426 339.279 361.828 338.965 360.921 337.411C359.457 334.903 363.951 330.27 365 328C358.076 326.724 351.082 335.874 357.434 341.397C361.469 344.905 371.849 343.661 377 344.285C394.406 346.395 412.373 353.968 429.999 348.442C436.752 346.325 438.101 340.053 435.647 334C429.286 318.305 416.872 305.896 410.453 290C406.92 281.25 405.86 269.21 397 264M168 316C175.087 315.187 179.505 307.514 181 301C174.824 303.882 170.391 309.693 168 316M109 336L109 334C97.6308 327.35 104.479 318.156 106 308L114 308C113.925 314.757 110.012 319.519 109 326C114.711 323.313 117.979 318.4 117.969 312.001C117.959 305.968 112.103 301.522 106.225 305.029C103.782 306.486 102.854 309.453 102.029 312C99.723 319.124 96.0034 339.422 109 336M193 317C198.005 315.5 200.407 313.274 201 308C195.185 308.65 193.186 311.271 193 317M179 315C182.504 314.748 184.935 313.688 188 312L188 310C183.557 309.627 181.556 311.498 179 315M210 315C213.35 315.99 216.514 315.998 220 316C216.783 312.699 212.775 310.144 210 315z"/>
<path style="fill:#fefefd; stroke:none;" d="M71 313C65.4398 323.206 61.9072 335.073 57.946 346C55.4735 352.82 51.7275 359.741 51 367C55.1598 363.187 56.949 358.455 59.5386 353.576C64.784 343.692 68.8876 335.194 70.2847 324C70.7378 320.37 71.8557 316.565 71 313z"/>
<path style="fill:#3b3c38; stroke:none;" d="M259 341C259.924 362.185 283.775 367.505 301 370.996C334.442 377.774 368.93 377.013 403 377C414.165 376.996 424.804 376.145 436 376.91C452.525 378.041 473.456 370.878 475 352C468.909 356.483 465.158 363.46 458 366.637C442.962 373.311 424.996 372 409 372C390.133 372 370.821 373.199 352 371.91C342.304 371.246 332.649 369.425 323 368.285C305.238 366.189 281.881 366.445 268.213 352.699C264.971 349.439 263.288 344.92 261 341L259 341z"/>
</svg>
